<svg xmlns="http://www.w3.org/2000/svg" viewBox="0 0 64 64" role="img" aria-labelledby="title">
  <title>Elmo Astreo</title>
  <rect width="64" height="64" rx="18" fill="#111013" />
  <path
    d="M40 15c-3.9-2.7-9.5-3.6-14.6-2.2c-8.5 2.2-14.5 9.5-15.7 18c-.8 5.2.4 10.4 3.4 14.3"
    fill="none"
    stroke="#f7f1e8"
    stroke-linecap="round"
    stroke-linejoin="round"
    stroke-width="2.8"
  />
  <path
    d="M39.8 15.2c5.5 1 10.8 4.6 12.4 9.5c1.5 4.7.4 10.5-4.2 14.8"
    fill="none"
    stroke="#f7f1e8"
    stroke-linecap="round"
    stroke-linejoin="round"
    stroke-width="2.8"
  />
  <path
    d="M31 18.5c7.5-.5 13.1 1.8 16.1 5.4"
    fill="none"
    stroke="#f7f1e8"
    stroke-linecap="round"
    stroke-linejoin="round"
    stroke-width="2.8"
  />
  <path
    d="M19.8 33.5c2.7-7.6 10.1-12.8 18.7-12.8c2.4 0 4.9.4 6.8 1.2"
    fill="none"
    stroke="#f7f1e8"
    stroke-linecap="round"
    stroke-linejoin="round"
    stroke-width="2.8"
  />
  <path
    d="M31.5 34.3c3.6-.6 7.5.8 10 3.5"
    fill="none"
    stroke="#f7f1e8"
    stroke-linecap="round"
    stroke-linejoin="round"
    stroke-width="2.8"
  />
  <path
    d="M31.6 35.2l-5.7 11.3l12-7.3l-.4 9.6"
    fill="none"
    stroke="#f7f1e8"
    stroke-linecap="round"
    stroke-linejoin="round"
    stroke-width="2.8"
  />
</svg>
